# xmcd
#
# Track frame offsets:
#	150
#	12027
#	26110
#	44205
#	59325
#	75940
#	97527
#	115062
#	133565
#	153975
#	165900
#	187807
#	206357
#	224840
#	255552
#	268935
#	281197
#	292737
#
# Disc length: 4134 seconds
#
# Revision: 1
# Processed by: cddbd v1.5.2PL0 Copyright (c) Steve Scherf et al.
# Submitted via: audiograbber 1.83.01
#
DISCID=f3102412
DTITLE=José Feliciano - JOSE FELICIANO - Light My Fire - Greatest Hits
DYEAR=1900
DGENRE=Pop
TTITLE0=Rain
TTITLE1=Light my fire
TTITLE2=California dreaming
TTITLE3=In my life
TTITLE4=Angela
TTITLE5=Stay with me
TTITLE6=Daniel
TTITLE7=You send me
TTITLE8=Hi-heel sneakers
TTITLE9=Pegao
TTITLE10=Affirmation
TTITLE11=Volvere
TTITLE12=Que sera
TTITLE13=Bamboleo
TTITLE14=La bamba
TTITLE15=Mule skinner blues
TTITLE16=Mystery train
TTITLE17=The last time
EXTD=
EXTT0=
EXTT1=
EXTT2=
EXTT3=
EXTT4=
EXTT5=
EXTT6=
EXTT7=
EXTT8=
EXTT9=
EXTT10=
EXTT11=
EXTT12=
EXTT13=
EXTT14=
EXTT15=
EXTT16=
EXTT17=
PLAYORDER=
